Coordinates
version=1
nRows=5
nColumns=40
inDegrees=yes

Units are S.I. units (second, meters, Newtons, ...)
If the header above contains a line with 'inDegrees', this indicates whether rotational values are in degrees (yes) or radians (no).

endheader
time	pelvis_tilt	pelvis_list	pelvis_rotation	pelvis_tx	pelvis_ty	pelvis_tz	hip_flexion_r	hip_adduction_r	hip_rotation_r	knee_angle_r	knee_angle_r_beta	ankle_angle_r	subtalar_angle_r	mtp_angle_r	hip_flexion_l	hip_adduction_l	hip_rotation_l	knee_angle_l	knee_angle_l_beta	ankle_angle_l	subtalar_angle_l	mtp_angle_l	lumbar_extension	lumbar_bending	lumbar_rotation	arm_flex_r	arm_add_r	arm_rot_r	elbow_flex_r	pro_sup_r	wrist_flex_r	wrist_dev_r	arm_flex_l	arm_add_l	arm_rot_l	elbow_flex_l	pro_sup_l	wrist_flex_l	wrist_dev_l
      1.29000000	     -7.34907217	      5.96579401	    -81.15759012	      0.23738885	      0.85650195	      1.38358748	     25.56634123	      3.63048480	    -16.81431300	     23.78238672	      0.41508095	     -4.57279228	      0.00000000	      0.00000000	      5.05582476	    -14.60150775	     -0.74700404	     51.65348876	      0.90152345	    -19.08401703	      0.00000000	      0.00000000	      1.85183937	     10.23727971	    -10.72167398	     -8.33639238	     -6.14915150	      1.76762986	     28.99119780	     89.08394860	    -22.64819183	      8.97182989	     -0.47572807	     -8.29826030	     13.02330814	     43.35039831	     89.33542496	    -20.22699332	      1.59650145
      1.30000000	     -7.13601770	      5.86092490	    -81.23103368	      0.23579507	      0.85891355	      1.39483820	     24.31757494	      3.84237304	    -16.56564464	     23.25478882	      0.40587263	     -3.95790048	      0.00000000	      0.00000000	      6.80308379	    -14.30533315	     -0.01247401	     53.62355145	      0.93590753	    -18.32662229	      0.00000000	      0.00000000	      1.50807206	      9.90749419	    -10.18036698	     -7.59716493	     -6.26145980	      1.82886735	     29.55387846	     89.09545680	    -22.61773242	      8.94943418	     -0.82273004	     -8.22333803	     13.10180089	     42.20027848	     89.33566747	    -20.27009814	      1.84034148
      1.31000000	     -7.32923064	      6.38107888	    -80.64993257	      0.23500294	      0.86016716	      1.40587897	     23.74491177	      4.04129381	    -17.41993432	     22.63940451	      0.39513215	     -3.48900706	      0.00000000	      0.00000000	      9.64391101	    -14.20429456	      1.35404071	     55.73382449	      0.97273874	    -16.62788162	      0.00000000	      0.00000000	      2.13403438	      9.86660251	    -10.17992731	     -7.14185980	     -6.41465540	      1.50519768	     30.40086262	     89.11526239	    -22.68860043	      9.14025814	     -1.14084261	     -8.21149093	     13.81035749	     40.87914586	     89.32568823	    -20.34930378	      2.38497630
      1.32000000	     -7.15137311	      6.58077759	    -80.55383208	      0.23374549	      0.86209910	      1.41699123	     22.76116324	      4.13931262	    -17.56840472	     21.97883563	      0.38360305	     -3.06862542	      0.00000000	      0.00000000	     11.76018693	    -13.77345696	      2.05759429	     57.23937218	      0.99901551	    -15.01220682	      0.00000000	      0.00000000	      2.22656722	      9.49722780	     -9.75704428	     -6.54224198	     -6.57390485	      1.41528003	     31.17993713	     89.12941100	    -22.70398077	      9.20410114	     -1.50783102	     -8.21986100	     14.15016262	     39.74067352	     89.32005067	    -20.37248342	      2.77260796
      1.33000000	     -6.85270537	      6.68248182	    -80.58213414	      0.23246436	      0.86424927	      1.42814915	     21.61244464	      4.17720751	    -17.61109421	     21.22027717	      0.37036370	     -2.75234629	      0.00000000	      0.00000000	     13.60702295	    -13.23480164	      2.46934332	     58.31582996	      1.01780324	    -13.26920549	      0.00000000	      0.00000000	      2.17301190	      9.01294901	     -9.22125355	     -5.91279784	     -6.75239091	      1.39202905	     31.97535417	     89.14091417	    -22.74696635	      9.17496952	     -1.89827058	     -8.24953928	     14.38674816	     38.69020302	     89.31709558	    -20.35711421	      3.10576702
